<?xml version="1.0"?>
<svg xmlns="http://www.w3.org/2000/svg" xmlns:xlink="http://www.w3.org/1999/xlink" version="1.1" id="Hospital" x="0px" y="0px" width="512px" height="512px" viewBox="0 0 144.083 144" enable-background="new 0 0 144.083 144" xml:space="preserve"><g><path d="M50.292,53.495h-14.5c-1.657,0-3,1.343-3,3v14.5c0,1.657,1.343,3,3,3h14.5c1.657,0,3-1.343,3-3v-14.5  C53.292,54.838,51.948,53.495,50.292,53.495z M47.292,67.995h-8.5v-8.5h8.5V67.995z" data-original="#000000" class="active-path" data-old_color="#a2bb3b" fill="#a2bb3b"/><path d="M79.042,53.495h-14.5c-1.657,0-3,1.343-3,3v14.5c0,1.657,1.343,3,3,3h14.5c1.658,0,3-1.343,3-3v-14.5  C82.042,54.838,80.7,53.495,79.042,53.495z M76.042,67.995h-8.5v-8.5h8.5V67.995z" data-original="#000000" class="active-path" data-old_color="#a2bb3b" fill="#a2bb3b"/><path d="M107.792,53.495h-14.5c-1.656,0-3,1.343-3,3v14.5c0,1.657,1.344,3,3,3h14.5c1.658,0,3-1.343,3-3v-14.5  C110.792,54.838,109.45,53.495,107.792,53.495z M104.792,67.995h-8.5v-8.5h8.5V67.995z" data-original="#000000" class="active-path" data-old_color="#a2bb3b" fill="#a2bb3b"/><path d="M79.042,83.495h-14.5c-1.657,0-3,1.343-3,3v14.5c0,1.657,1.343,3,3,3h14.5c1.658,0,3-1.343,3-3v-14.5  C82.042,84.838,80.7,83.495,79.042,83.495z M76.042,97.995h-8.5v-8.5h8.5V97.995z" data-original="#000000" class="active-path" data-old_color="#a2bb3b" fill="#a2bb3b"/><path d="M107.792,83.495h-14.5c-1.656,0-3,1.343-3,3v14.5c0,1.657,1.344,3,3,3h14.5c1.658,0,3-1.343,3-3v-14.5  C110.792,84.838,109.45,83.495,107.792,83.495z M104.792,97.995h-8.5v-8.5h8.5V97.995z" data-original="#000000" class="active-path" data-old_color="#a2bb3b" fill="#a2bb3b"/><path d="M50.292,81.745h-14.5c-1.657,0-3,1.343-3,3v14.5c0,1.657,1.343,3,3,3h14.5c1.657,0,3-1.343,3-3v-14.5  C53.292,83.088,51.948,81.745,50.292,81.745z M47.292,96.245h-8.5v-8.5h8.5V96.245z" data-original="#000000" class="active-path" data-old_color="#a2bb3b" fill="#a2bb3b"/><path d="M126.708,112.663h-4.166V31.496c0-1.657-1.342-3-3-3H89.958v-2.493c0-1.657-1.342-3-3-3h-6v-6c0-1.657-1.342-3-3-3H66.124  c-1.657,0-3,1.343-3,3v6h-6c-1.657,0-3,1.343-3,3v2.493H25.042c-1.657,0-3,1.343-3,3v81.167h-4.667c-1.657,0-3,1.343-3,3v11.334  c0,1.657,1.343,3,3,3h109.333c1.658,0,3-1.343,3-3v-11.334C129.708,114.006,128.366,112.663,126.708,112.663z M60.124,29.003h6  c1.657,0,3-1.343,3-3v-6h5.833v6c0,1.657,1.344,3,3,3h6v5.834h-6c-1.656,0-3,1.343-3,3v6h-5.833v-6c0-1.657-1.343-3-3-3h-6V29.003z   M28.042,34.496h26.083v3.341c0,1.657,1.343,3,3,3h6v6c0,1.657,1.343,3,3,3h11.833c1.658,0,3-1.343,3-3v-6h6c1.658,0,3-1.343,3-3  v-3.341h26.584v78.167h-88.5V34.496z M123.708,123.997H20.375v-5.334h103.333V123.997z" data-original="#000000" class="active-path" data-old_color="#a2bb3b" fill="#a2bb3b"/></g> </svg>
