<?xml version="1.0"?>
<svg xmlns="http://www.w3.org/2000/svg" xmlns:xlink="http://www.w3.org/1999/xlink" version="1.1" id="Layer_1" x="0px" y="0px" viewBox="0 0 479.997 479.997" style="enable-background:new 0 0 479.997 479.997;" xml:space="preserve" width="512px" height="512px" class=""><g><g>
	<g>
		<g>
			<path d="M393.066,196.253l-67.519-18.858c-2.556-0.714-5.29-0.382-7.601,0.92c-2.311,1.303-4.01,3.47-4.723,6.026     l-47.251,169.474c-9.157,32.836-26.002,36.633-37.876,36.633c-5.483,0-11.68-0.954-18.425-2.839l-6.292-1.753     c-15.447-4.305-25.314-10.936-30.167-20.273c-4.768-9.173-4.934-21.887-0.493-37.789l47.295-169.444     c0.713-2.555,0.382-5.289-0.921-7.599c-1.303-2.311-3.47-4.009-6.024-4.722l-67.541-18.835     c-5.323-1.486-10.836,1.625-12.318,6.945l-48.653,174.4c-9.522,34.119-5.181,69.907,12.225,100.773     c17.404,30.864,45.784,53.106,79.891,62.623l11.24,3.163c11.674,3.251,23.684,4.899,35.695,4.899     c59.27,0,111.81-39.905,127.769-97.046l48.632-174.382C401.491,203.252,398.384,197.738,393.066,196.253z M149.788,149.145     l48.274,13.462l-13.444,48.167l-48.297-13.358L149.788,149.145z M332.112,377.577c-13.552,48.529-58.172,82.422-108.504,82.422     c-10.198,0-20.402-1.401-30.304-4.159l-11.235-3.162c-28.983-8.088-53.085-26.978-67.866-53.189     c-14.78-26.211-18.468-56.602-10.382-85.574l27.126-97.234l48.294,13.357l-25.784,92.377c-5.848,20.944-5.172,38.57,2.01,52.39     c7.444,14.324,21.759,24.525,42.547,30.317l6.285,1.751c8.489,2.372,16.496,3.575,23.799,3.575     c28.43,0,47.655-17.247,57.142-51.261l25.788-92.494l48.165,13.782L332.112,377.577z M364.565,261.209l-48.167-13.782     l13.404-48.078l48.256,13.477L364.565,261.209z" data-original="#000000" class="active-path" data-old_color="#a2bb3b" fill="#a2bb3b"/>
			<path d="M239.511,100.209l32.323,8.241l-31.54,28.701c-2.676,2.434-3.827,6.124-3.013,9.648c0.815,3.524,3.47,6.334,6.942,7.347     l56.284,16.422c0.925,0.27,1.867,0.401,2.8,0.401c3.01,0,5.92-1.361,7.848-3.802l59.416-75.211     c2.08-2.632,2.701-6.131,1.654-9.319c-1.047-3.187-3.621-5.637-6.857-6.524l-16.492-4.522l35.88-56.211     c2.497-3.911,1.976-9.024-1.259-12.351c-3.234-3.327-8.33-3.991-12.311-1.607L236.841,81.941     c-3.463,2.076-5.338,6.029-4.754,10.024S235.599,99.211,239.511,100.209z M345.061,40.397l-20.342,31.87     c-1.71,2.678-2.045,6.009-0.903,8.974c1.142,2.965,3.624,5.211,6.688,6.051l15.014,4.117l-45.877,58.073l-32.696-9.54     l32.086-29.198c2.721-2.475,3.862-6.246,2.973-9.815c-0.89-3.57-3.668-6.362-7.232-7.271l-27.061-6.899L345.061,40.397z" data-original="#000000" class="active-path" data-old_color="#a2bb3b" fill="#a2bb3b"/>
		</g>
	</g>
</g></g> </svg>
